<?xml version="1.0" encoding="utf-8"?>
<!-- Generator: Adobe Illustrator 26.1.0, SVG Export Plug-In . SVG Version: 6.00 Build 0)  -->
<svg version="1.1" id="Layer_1" xmlns="http://www.w3.org/2000/svg" xmlns:xlink="http://www.w3.org/1999/xlink" x="0px" y="0px"
	 viewBox="0 0 728 90" style="enable-background:new 0 0 728 90;" xml:space="preserve">
<style type="text/css">
	.st0{fill:#00095B;}
</style>
<g>
	<path class="st0" d="M623.7,60c0.3,0,0.6-0.1,0.6-0.6s-0.1-0.5-0.6-0.5H623v1L623.7,60L623.7,60z M623.7,58.2
		c0.4,0,0.6-0.1,0.6-0.5c0-0.3-0.1-0.5-0.6-0.5H623v0.9L623.7,58.2L623.7,58.2z M622.1,56.4h1.6c1,0,1.3,0.4,1.3,1s-0.3,0.8-0.6,0.9
		c0.4,0.1,0.7,0.5,0.7,1c0,0.8-0.6,1.2-1.5,1.2H622C622.1,60.5,622.1,56.4,622.1,56.4z"/>
	<path class="st0" d="M626.6,59.1v-2.8h0.9V59c0,0.7,0.1,0.8,0.7,0.8s0.7-0.3,0.7-0.8v-2.5h0.9v2.8c0,1-0.4,1.5-1.7,1.5
		C627,60.7,626.6,60.2,626.6,59.1"/>
	<rect x="631.5" y="56.4" class="st0" width="0.9" height="4.2"/>
	<polygon class="st0" points="634,56.4 635,56.4 635,59.9 636.6,59.9 636.6,60.7 634,60.7 	"/>
	<polygon class="st0" points="638.3,57.3 637.2,57.3 637.2,56.4 640.5,56.4 640.5,57.3 639.2,57.3 639.2,60.7 638.3,60.7 	"/>
	<path class="st0" d="M696.6,58.5c0.4,0,0.7-0.1,0.7-0.7s-0.1-0.7-0.7-0.7h-0.7v1.3L696.6,58.5L696.6,58.5z M694.9,56.4h1.7
		c1,0,1.5,0.6,1.5,1.3c0,0.8-0.4,1.5-1.5,1.5h-0.7v1.3H695L694.9,56.4L694.9,56.4z"/>
	<path class="st0" d="M701.2,58.5c0.4,0,0.6-0.1,0.6-0.7s-0.1-0.7-0.6-0.7h-0.7v1.2L701.2,58.5L701.2,58.5z M701.1,59.2h-0.7v1.5
		h-0.9v-4.3h1.7c1,0,1.5,0.5,1.5,1.3c0,0.7-0.3,1.2-0.7,1.3l0.7,1.5h-1L701.1,59.2z"/>
	<path class="st0" d="M706.7,58.6c0-0.7-0.1-1.3-0.9-1.3c-0.7,0-0.9,0.6-0.9,1.3c0,0.8,0.1,1.3,0.9,1.3
		C706.5,60,706.7,59.4,706.7,58.6 M703.9,58.6c0-1.2,0.3-2.2,1.9-2.2s1.9,1,1.9,2.2s-0.3,2.2-1.9,2.2
		C704.1,60.7,703.9,59.7,703.9,58.6"/>
	<path class="st0" d="M708.9,59.1v-2.8h0.9V59c0,0.7,0.1,0.8,0.7,0.8c0.7,0,0.7-0.3,0.7-0.8v-2.5h0.9v2.8c0,1-0.4,1.5-1.7,1.5
		C709.3,60.7,708.9,60.2,708.9,59.1"/>
	<path class="st0" d="M715.3,59.9c0.7,0,0.9-0.3,0.9-1.3s-0.3-1.3-0.9-1.3h-0.6v2.6H715.3L715.3,59.9z M713.7,56.4h1.3
		c1.3,0,2,0.6,2,2.1c0,1.7-0.6,2.1-2,2.1h-1.3V56.4z"/>
	<path class="st0" d="M683.8,61.9c0,0.1,0.1,0.1,0.3,0.1c0,0,0.1,0,0,0.1c-0.3,0.6-0.6,0.8-0.8,1.3c-0.3,0.5-0.7,0.7-1,1
		c-0.7,0.5-1.5,1-2.1,0.7c-0.3-0.1-0.5-0.7-0.5-0.9c0-1,0.5-1.9,1.3-2.9c1-1.2,2.1-1.9,2.8-1.5s0.6,1.2,0.1,1.9
		C683.8,61.8,683.8,61.8,683.8,61.9 M691.9,54.5C692,54.4,691.9,54.4,691.9,54.5c-0.7-0.1-1.6-0.1-2.2-0.1c-0.1,0-0.3,0-0.3,0.1
		c-0.3,0.5-3.2,4.7-3.7,5.5c-0.1,0.1-0.3,0.1-0.3,0c-0.1-0.5-0.5-1-1.2-1.3c-0.6-0.3-1-0.3-1.6-0.1c-1,0.1-1.9,0.7-2.6,1.2
		c-1.2,0.8-2.1,1.9-3.4,2.8c-0.7,0.5-1.7,0.8-2.2,0.3c-0.7-0.6-0.6-1.7,0.4-2.5c0.1-0.1,0.3,0,0.1,0.1c-0.1,0.4,0,0.7,0.3,1
		c0.4,0.3,0.9,0.4,1.3,0.1c0.6-0.3,0.9-0.7,1-1.3c0.1-0.9-0.6-1.7-1.5-1.8c-0.7-0.1-1.5,0.3-2.1,0.7c-0.3,0.3-0.6,0.5-0.8,0.9
		c-0.1,0.1-0.1,0.1-0.1,0c0-1.2-0.5-1.9-1.5-1.9c-0.7,0-1.6,0.4-2.2,0.8c-0.7,0.6-1.3,1.2-2,1.9c-0.1,0.1-0.1,0.1-0.1-0.1
		c0-0.7-0.3-1.5-0.7-2.1c-0.1-0.1-0.4-0.3-0.7-0.1c-0.1,0.1-0.5,0.3-0.7,0.5c-0.1,0.1-0.1,0.3-0.1,0.5c0.4,1.2,0.3,2.4-0.3,3.5
		c-0.5,1-1.3,1.9-2.2,2.2c-0.7,0.3-1.3,0.1-1.8-0.5c-0.7-0.7-0.4-2.1,0.6-3.3c0.7-1,1.9-1.6,3-2.1c0.1-0.1,0.1-0.1,0.1-0.3
		c-0.1-0.1-0.1-0.4-0.3-0.6c-0.1-0.3-0.4-0.3-0.7-0.3c-0.8,0.1-1.5,0.4-2.2,0.7c-1.9,1-2.8,2.8-3.3,3.8c-0.3,0.5-0.4,0.7-0.7,1
		c-0.3,0.4-0.7,0.7-1.3,1.3c-0.1,0.1-0.1,0.1-0.1,0.3c0.1,0.1,0.5,0.7,0.6,0.7c0.1,0.1,0.3,0,0.3-0.1c0.5-0.3,1-0.8,1.3-1.2
		c0.1-0.1,0.3-0.1,0.3,0.1c0.3,0.9,0.9,1.6,1.9,1.9c1.8,0.6,3.5-0.3,4.8-1.7c0.8-0.9,1.2-1.5,1.5-1.9c0.6-0.7,1.7-2.1,3-3.2
		c0.5-0.4,1-0.7,1.3-0.5c0.3,0.1,0.3,0.5-0.1,1.2c-1.3,2.3-3.3,5.1-3.6,5.8c-0.1,0.1,0,0.3,0.1,0.3c0.7,0,1.3,0,2.1,0
		c0.1,0,0.1-0.1,0.3-0.1c1-1.5,2-3.1,3.1-4.5c0.1-0.1,0.1,0,0.1,0c0,0.4,0.1,0.8,0.3,1.2c0.4,0.7,0.9,0.8,1.5,0.8
		c0.5,0,0.7-0.1,1.3-0.3c0.5-0.1,0.7-0.4,1-0.6c0.1-0.1,0.1,0.1,0.1,0.1c-0.3,1.2,0.1,2.6,1.3,3.3c1.5,0.7,3.2-0.3,4.1-1.2
		c0.1-0.1,0.3-0.1,0.3,0.1c0,0.4,0.1,0.7,0.5,1c0.8,0.7,2.4,0.5,4-0.7c1-0.7,2.1-1.9,3.2-3.1c0-0.1,0.1-0.1,0-0.1
		c-0.1-0.1-0.4-0.3-0.6-0.5c-0.1-0.1-0.1-0.1-0.3,0c-1,0.9-1.9,2-3.3,2.8c-0.5,0.3-1.2,0.6-1.5,0.1c-0.1-0.1-0.1-0.4,0-0.7
		C685.5,63.8,691.5,55,691.9,54.5"/>
	<path class="st0" d="M663.4,55.6C663.4,55.7,663.5,55.7,663.4,55.6c0.4,0,0.7-0.2,0.9-0.6c0.1-0.3,0.3-0.7,0.1-0.7
		c-0.1-0.1-0.5-0.1-0.7,0.1C663.4,54.7,663.3,55.1,663.4,55.6 M647.8,67c-2.2,0-4.2-1.3-4.5-3.6c-0.1-1.3,0.3-2.4,1-3.4
		c0.7-0.8,1.9-1.5,2.8-1.8c0.3-0.1,0.7,0,0.9,0.1c0.3,0.3,0.3,0.7-0.1,0.7c-0.7,0.4-1.6,1-2.1,1.9c-0.4,0.7-0.5,1.5,0.1,2.2
		c0.9,1.3,3.4,1.3,5.8-0.7c0.7-0.6,1.2-1,1.7-1.6c1-1.2,1.3-1.5,2.8-3.4v-0.1c0,0,0,0-0.1,0c-0.9,0-1.8,0.3-2.5,0.8
		c-0.3,0.1-0.6,0.1-0.7-0.1c-0.1-0.2-0.1-0.6,0.3-0.7c1.2-0.8,2.6-1,4-1.2c0,0,0.1,0,0.1-0.1c0.7-0.7,1-1.3,1.6-2.1
		c0.7-0.7,1.5-1.3,2.1-1.9c0.8-0.7,1.3-0.9,2-1.2c0.1-0.1,0-0.1-0.1-0.1c-3.2-0.6-6.3-1.3-9.4-0.1c-2.1,0.7-3.1,2.3-2.6,3.5
		c0.3,0.7,1.3,0.9,2.3,0.5c0.8-0.4,1.6-1,2.1-1.9c0.3-0.5,0.9-0.1,0.7,0.7c-0.9,2.1-2.6,3.6-4.8,3.7c-1.8,0.1-3-1.2-2.9-2.8
		c0-3.1,3.5-5.1,7.3-5.4c4.5-0.4,8.8,0.7,13.2,1.3c3.4,0.4,6.7,0.4,10.2-0.4c0.4-0.1,0.7,0.1,0.7,0.6c0,0.6-0.5,1.2-1.6,1.7
		c-1.3,0.7-2.6,0.9-4,0.9c-3.4,0-6.5-1.2-9.8-1.9c0,0.1,0.1,0.3-0.1,0.4c-1.9,1.3-3.4,2.6-4.6,4.4c0,0.1,0,0.1,0.1,0.1
		c1-0.1,1.9-0.1,2.8-0.1c0.1,0,0.1-0.1,0.1-0.1c-0.1-0.7,0.1-1.3,0.7-1.9c0.7-0.6,1.3-0.6,1.9-0.3c0.6,0.5,0.6,1.2,0.3,1.8
		c-0.3,0.7-0.8,0.9-1.3,1c0,0-0.1,0-0.1,0.1s0.7,0.6,0.7,0.7c0.1,0.1,0,0.3-0.1,0.3s-0.1,0.1-0.3,0.1s-0.1-0.1-0.3-0.1
		c-0.3-0.1-0.7-0.4-0.9-0.7c-0.1-0.1-0.1-0.1-0.4-0.1c-1,0.1-2.4,0.3-3.5,0.3c-0.3,0-0.3,0.1-0.3,0.1c-1.6,2.6-3.4,5.3-5.3,7.3
		C651.4,66.4,649.7,67,647.8,67"/>
</g>
</svg>
